<svg xmlns="http://www.w3.org/2000/svg" viewBox="80 40 340 430" role="img" aria-labelledby="title desc">
  <title id="title">AQL Fisio</title>
  <desc id="desc">AQL Fisio spine icon inspired by the selected concept 6.</desc>
  <defs>
    <linearGradient id="markGradient" x1="118" x2="346" y1="94" y2="430" gradientUnits="userSpaceOnUse">
      <stop offset="0" stop-color="#0b3b6f"/>
      <stop offset="0.54" stop-color="#0d78a0"/>
      <stop offset="1" stop-color="#2bb7b3"/>
    </linearGradient>
    <filter id="softShadow" x="-20%" y="-20%" width="140%" height="140%">
      <feDropShadow dx="0" dy="12" stdDeviation="18" flood-color="#082f49" flood-opacity="0.18"/>
    </filter>
  </defs>
  <rect width="512" height="512" rx="118" fill="#ffffff"/>
  <g filter="url(#softShadow)">
    <path
      d="M275 86c-51 36-83 83-94 142-9 49-2 95 20 139 15 30 35 54 60 72-47-21-84-54-110-99-27-48-36-100-26-156 11-63 44-115 98-155 16-12 34-21 52-28z"
      fill="url(#markGradient)"
    />
    <path
      d="M307 101c-36 63-42 126-17 189 13 34 36 66 69 96-55-20-94-54-118-101-19-38-25-79-16-122 9-40 31-75 65-104z"
      fill="#0b2f63"
      opacity="0.98"
    />
    <path
      d="M270 108c-10 18-17 38-20 59-5 35 2 67 21 96 17 26 42 45 75 59-53-7-92-32-116-74-18-32-23-68-13-108 9-35 27-62 53-81z"
      fill="#ffffff"
      opacity="0.95"
    />
    <circle cx="198" cy="133" r="18" fill="#2bb7b3"/>
    <circle cx="182" cy="190" r="13" fill="#0b5d96"/>
    <circle cx="176" cy="239" r="12" fill="#1b8dac"/>
    <circle cx="182" cy="287" r="11" fill="#2bb7b3"/>
    <circle cx="198" cy="333" r="10" fill="#0b5d96"/>
    <circle cx="222" cy="375" r="9" fill="#2bb7b3"/>
  </g>
</svg>
